<?xml version="1.0" encoding="UTF-8"?>
<svg width="800" height="400" viewBox="0 0 800 400" xmlns="http://www.w3.org/2000/svg">
    <!-- Tło -->
    <rect width="800" height="400" fill="#f8f9fa"/>

    <!-- Centralny element - API -->
    <rect x="300" y="150" width="200" height="100" rx="10" fill="#e9ecef" stroke="#495057" stroke-width="2"/>
    <text x="400" y="200" text-anchor="middle" font-size="24" fill="#212529">API</text>

    <!-- Versioning -->
    <g transform="translate(150, 100)">
        <rect x="-40" y="-30" width="80" height="60" rx="10" fill="#228be6" opacity="0.1"/>
        <path d="M-20,-15 L20,-15 L20,15 L-20,15 Z" fill="none" stroke="#228be6" stroke-width="2"/>
        <text x="0" y="5" text-anchor="middle" font-size="16" fill="#228be6">v1</text>
        <text x="0" y="40" text-anchor="middle" font-size="12" fill="#495057">Versioning</text>
    </g>

    <!-- Documentation -->
    <g transform="translate(150, 300)">
        <rect x="-40" y="-30" width="80" height="60" rx="10" fill="#40c057" opacity="0.1"/>
        <path d="M-20,-15 L20,-15 L20,15 L-20,15 Z" fill="none" stroke="#40c057" stroke-width="2"/>
        <text x="0" y="5" text-anchor="middle" font-size="20" fill="#40c057">📚</text>
        <text x="0" y="40" text-anchor="middle" font-size="12" fill="#495057">Docs</text>
    </g>

    <!-- Rate Limiting -->
    <g transform="translate(650, 100)">
        <rect x="-40" y="-30" width="80" height="60" rx="10" fill="#f03e3e" opacity="0.1"/>
        <path d="M-20,-15 L20,-15 L20,15 L-20,15 Z" fill="none" stroke="#f03e3e" stroke-width="2"/>
        <text x="0" y="5" text-anchor="middle" font-size="20" fill="#f03e3e">⚡</text>
        <text x="0" y="40" text-anchor="middle" font-size="12" fill="#495057">Rate Limit</text>
    </g>

    <!-- Caching -->
    <g transform="translate(650, 300)">
        <rect x="-40" y="-30" width="80" height="60" rx="10" fill="#fab005" opacity="0.1"/>
        <path d="M-20,-15 L20,-15 L20,15 L-20,15 Z" fill="none" stroke="#fab005" stroke-width="2"/>
        <text x="0" y="5" text-anchor="middle" font-size="20" fill="#fab005">💾</text>
        <text x="0" y="40" text-anchor="middle" font-size="12" fill="#495057">Cache</text>
    </g>

    <!-- Monitoring -->
    <g transform="translate(400, 50)">
        <rect x="-40" y="-30" width="80" height="60" rx="10" fill="#845ef7" opacity="0.1"/>
        <path d="M-20,-15 L20,-15 L20,15 L-20,15 Z" fill="none" stroke="#845ef7" stroke-width="2"/>
        <text x="0" y="5" text-anchor="middle" font-size="20" fill="#845ef7">📊</text>
        <text x="0" y="40" text-anchor="middle" font-size="12" fill="#495057">Monitor</text>
    </g>

    <!-- Linie łączące -->
    <path d="M190,100 L300,150" stroke="#6c757d" stroke-width="2" stroke-dasharray="5,5"/>
    <path d="M190,300 L300,250" stroke="#6c757d" stroke-width="2" stroke-dasharray="5,5"/>
    <path d="M610,100 L500,150" stroke="#6c757d" stroke-width="2" stroke-dasharray="5,5"/>
    <path d="M610,300 L500,250" stroke="#6c757d" stroke-width="2" stroke-dasharray="5,5"/>
    <path d="M400,80 L400,150" stroke="#6c757d" stroke-width="2" stroke-dasharray="5,5"/>
</svg>
